<svg xmlns="http://www.w3.org/2000/svg" width="92" height="75" fill="none" viewBox="0 0 92 75"><path fill="#212529" stroke="#fff" stroke-width="4" d="M85.6562 48.0625H85.5625V35.9166C85.5625 33.7187 84.6804 31.6151 83.1316 30.0663L70.0587 16.9934C68.5099 15.4446 66.4063 14.5625 64.2084 14.5625H60.4375V10.2812C60.4375 5.70891 56.7286 2 52.1562 2H10.2812C5.70891 2 2 5.70891 2 10.2812V52.1562C2 56.7286 5.70891 60.4375 10.2812 60.4375H10.5113C11.4866 67.532 17.5759 73 24.9375 73C32.2991 73 38.3884 67.532 39.3637 60.4375H52.3863C53.3616 67.532 59.4509 73 66.8125 73C74.1741 73 80.2634 67.532 81.2387 60.4375H85.6562C87.9124 60.4375 89.75 58.5999 89.75 56.3438V52.1562C89.75 49.9001 87.9124 48.0625 85.6562 48.0625ZM24.9375 62.7188C22.5743 62.7188 20.6562 60.8007 20.6562 58.4375C20.6562 56.0743 22.5743 54.1562 24.9375 54.1562C27.3007 54.1562 29.2188 56.0743 29.2188 58.4375C29.2188 60.8007 27.3007 62.7188 24.9375 62.7188ZM66.8125 62.7188C64.4493 62.7188 62.5312 60.8007 62.5312 58.4375C62.5312 56.0743 64.4493 54.1562 66.8125 54.1562C69.1757 54.1562 71.0938 56.0743 71.0938 58.4375C71.0938 60.8007 69.1757 62.7188 66.8125 62.7188ZM63.38 24.8438L74.0362 35.5H60.4375V24.8438H63.38Z"/><path fill="#FFC800" d="M30.9796 49.2917C30.7815 49.2915 30.585 49.2568 30.3988 49.1892C30.0396 49.0577 29.735 48.8094 29.5336 48.4842C29.3323 48.159 29.2459 47.7756 29.2884 47.3954L30.6038 35.2834H20.5417C20.2314 35.2838 19.9268 35.1997 19.6606 35.0401C19.3944 34.8805 19.1768 34.6514 19.031 34.3774C18.8852 34.1035 18.8168 33.7949 18.8332 33.485C18.8495 33.1751 18.95 32.8755 19.1238 32.6184L32.6026 12.46C32.8157 12.1446 33.1282 11.9094 33.4903 11.7917C33.8524 11.6741 34.2434 11.6809 34.6013 11.8109C34.9453 11.9386 35.2391 12.1737 35.4391 12.4814C35.6391 12.789 35.7347 13.1529 35.7117 13.5192L34.3963 25.7167H44.4584C44.7687 25.7162 45.0734 25.8003 45.3395 25.9599C45.6057 26.1195 45.8233 26.3486 45.9691 26.6226C46.1149 26.8966 46.1833 27.2051 46.1669 27.515C46.1506 27.825 46.0501 28.1246 45.8763 28.3817L32.3976 48.54C32.2408 48.7719 32.0296 48.9617 31.7824 49.0927C31.5351 49.2238 31.2595 49.2921 30.9796 49.2917V49.2917Z"/><path stroke="#fff" stroke-linecap="round" stroke-width="3" d="M62.6887 33.8768C65.7485 30.4346 61.1089 32.1782 63.9267 33.7884C65.1802 34.5047 67.4638 32.737 67.4638 31.4893C67.4638 30.4842 64.7147 30.5633 63.8825 29.8976C62.5676 28.8457 63.7601 26.2861 64.2362 27.9522C64.7375 29.7068 65.2847 29.9052 66.4911 30.8703C67.682 31.8231 67.6975 33.3022 67.508 32.6388C66.6514 29.6408 66.7258 26.7142 62.6887 26.7142"/><path stroke="#fff" stroke-linecap="round" stroke-width="3" d="M65.0763 59.3438C65.2742 57.5623 67.7991 57.0227 67.4196 59.2996C67.1155 61.124 65.4094 60.8522 68.2597 60.1396"/><path stroke="#fff" stroke-linecap="round" stroke-width="3" d="M66.668 55.3646C66.3521 57.8914 65.0081 59.4485 67.6407 61.5545C69.0207 62.6586 69.756 57.3066 67.4638 56.1605"/><path stroke="#fff" stroke-linecap="round" stroke-width="3" d="M26.8757 62.5272C26.1881 62.4413 21.2933 58.965 23.2502 57.929C28.1098 55.3563 24.4882 62.7867 24.4882 59.3438"/></svg>